<?xml version="1.0" encoding="UTF-8" standalone="no"?>
<svg
   xmlns:dc="http://purl.org/dc/elements/1.1/"
   xmlns:cc="http://creativecommons.org/ns#"
   xmlns:rdf="http://www.w3.org/1999/02/22-rdf-syntax-ns#"
   xmlns:svg="http://www.w3.org/2000/svg"
   xmlns="http://www.w3.org/2000/svg"
   viewBox="0 0 400 400"
   height="400"
   width="400"
   xml:space="preserve"
   id="svg2"
   version="1.1"><metadata
     id="metadata8"><rdf:RDF><cc:Work
         rdf:about=""><dc:format>image/svg+xml</dc:format><dc:type
           rdf:resource="http://purl.org/dc/dcmitype/StillImage" /></cc:Work></rdf:RDF></metadata><defs
     id="defs6"><clipPath
       id="clipPath18"
       clipPathUnits="userSpaceOnUse"><path
         id="path16"
         d="M 0,300 H 300 V 0 H 0 Z" /></clipPath></defs><g
     transform="matrix(1.3333333,0,0,-1.3333333,0,400)"
     id="g10"><g
       id="g12"><g
         clip-path="url(#clipPath18)"
         id="g14"><g
           transform="translate(198.6016,203.5937)"
           id="g20"><path
             id="path22"
             style="fill:#ffffff;fill-opacity:1;fill-rule:nonzero;stroke:none"
             d="m 0,0 15.71,-17.131 -3.76,-3.448 -15.711,17.134 c -1.771,1.936 -2.407,4.196 -1.743,6.202 0.663,2.006 2.519,3.441 5.092,3.938 L 26.154,11.859 27.127,6.852 0.558,1.688 C -0.318,1.519 -0.628,1.222 -0.663,1.151 -0.674,1.083 -0.603,0.658 0,0 m 0.207,-51.564 -47.147,-80.105 c -1.779,-3.024 -4.616,-2.98 -6.304,0.092 l -44.409,80.81 c -1.688,3.072 -0.201,5.562 3.305,5.53 l 91.415,-0.777 c 3.506,-0.031 4.921,-2.526 3.14,-5.55 m -112.363,35.978 15.709,17.134 c 0.602,0.658 0.675,1.082 0.661,1.16 -0.032,0.061 -0.342,0.357 -1.214,0.526 l -26.575,5.164 0.972,5.007 26.574,-5.164 c 2.571,-0.497 4.425,-1.933 5.088,-3.939 0.662,-2.007 0.026,-4.267 -1.747,-6.2 l -15.708,-17.134 z m 0.67,57.635 25.141,9.969 c 2.183,0.865 4.654,-0.201 5.518,-2.383 0.865,-2.183 -0.203,-4.654 -2.384,-5.518 l -25.141,-9.97 c -2.184,-0.864 -4.654,0.202 -5.519,2.383 -0.864,2.184 0.204,4.654 2.385,5.519 m 61.277,-33.45 c 12.319,0 22.313,-9.99 22.313,-22.314 0,-12.324 -9.994,-22.313 -22.313,-22.313 -12.325,0 -22.314,9.989 -22.314,22.313 0,12.324 9.989,22.314 22.314,22.314 m 27.23,42.565 c 0.865,2.181 3.334,3.249 5.518,2.384 L 7.678,43.577 C 9.861,42.712 10.93,40.242 10.064,38.06 9.2,35.876 6.729,34.811 4.546,35.675 l -25.143,9.972 c -2.179,0.864 -3.247,3.335 -2.382,5.517 M 52.854,22.105 c -2.582,3.257 -3.458,7.551 -2.613,12.785 -2.916,-0.132 -8.244,0.199 -12.16,3.719 -3.252,2.923 -4.796,7.354 -4.597,13.181 -2.438,1.069 -8.307,4.195 -10.02,10.117 -1.178,4.073 -0.14,8.56 3.071,13.364 h -151.771 c 3.212,-4.804 4.249,-9.291 3.071,-13.364 -1.712,-5.922 -7.582,-9.048 -10.021,-10.117 0.199,-5.827 -1.344,-10.258 -4.596,-13.181 -3.915,-3.519 -9.241,-3.851 -12.16,-3.719 0.844,-5.234 -0.032,-9.528 -2.613,-12.785 -2.261,-2.854 -5.418,-4.365 -8.16,-5.175 L -47.814,-175.976 63.724,16.302 c -3.088,0.519 -7.803,1.932 -10.87,5.803" /></g><g
           transform="translate(253.7959,227.5747)"
           id="g24"><path
             id="path26"
             style="fill:#ffffff;fill-opacity:1;fill-rule:nonzero;stroke:none"
             d="m 0,0 c 2.842,-3.598 7.731,-4.596 10.157,-4.875 l 32.58,56.166 h -67.702 c -3.614,-4.693 -4.928,-8.902 -3.888,-12.517 1.691,-5.88 9.114,-8.529 9.188,-8.556 l 1.082,-0.377 -0.077,-1.143 c -0.373,-5.401 0.821,-9.384 3.552,-11.839 4.473,-4.021 11.683,-2.798 11.755,-2.787 l 2.241,0.397 -0.518,-2.215 C -2.85,7.038 -2.301,2.915 0,0" /></g><g
           transform="translate(44.7056,227.5747)"
           id="g28"><path
             id="path30"
             style="fill:#ffffff;fill-opacity:1;fill-rule:nonzero;stroke:none"
             d="m 0,0 c 2.302,2.915 2.85,7.038 1.631,12.254 l -0.518,2.215 2.24,-0.397 c 0.069,-0.012 7.318,-1.215 11.768,2.799 2.721,2.455 3.912,6.434 3.539,11.827 l -0.079,1.146 1.086,0.375 c 0.073,0.026 7.496,2.675 9.187,8.555 1.039,3.615 -0.274,7.824 -3.888,12.517 H -39.663 L -7.378,-4.363 C -4.937,-3.742 -1.974,-2.5 0,0" /></g><g
           transform="translate(105.876,153.9609)"
           id="g32"><path
             id="path34"
             style="fill:#ffffff;fill-opacity:1;fill-rule:nonzero;stroke:none"
             d="m 0,0 8.803,-16.222 69.161,-0.79 8.351,16.293 z" /></g><g
           transform="translate(135.3916,99.0107)"
           id="g36"><path
             id="path38"
             style="fill:#ffffff;fill-opacity:1;fill-rule:nonzero;stroke:none"
             d="m 0,0 c 0,0 4.878,5.866 12.343,-0.154 0,0 9.369,5.516 13.613,-1.749 L 12.978,-23.966 Z" /></g></g></g></g></svg>